
<svg xmlns="http://www.w3.org/2000/svg" version="1.1" xmlns:xlink="http://www.w3.org/1999/xlink" preserveAspectRatio="none" x="0px" y="0px" width="1024px" height="1024px" viewBox="0 0 1024 1024">
<defs>
<g id="Layer0_0_FILL">
<path fill="#666666" stroke="none" d="
M 865 926.25
Q 923.844921875 908.4837890625 924.55 844.9 920.45 785.65 861.45 769.35
L 869.6 807.4
Q 893.2 825.35 892.25 850.05 888.1 883.4 859.65 896.8 820.95 907.6 796.25 871.4 786.05 849.8 798.95 823.4
L 789.3 784.75
Q 744.25 831.75 768.6 887.5 806.150390625 944.0705078125 865 926.25
M 701.8 141.55
L 721.55 139.15
Q 714.3 126.3 718.3 111.1
L 681.75 116.05
Q 663.35 123.15 664.05 141.45
L 757.8 558.4
Q 752.85 560.55 750.8 566.75
L 763.65 625.3 643.15 788.4
Q 624.2 812.9 591.75 816.75
L 318.8 816.75
Q 306.9 820.05 297.1 798.6 270.5 744.8 205.4 733.8 134.5 732.65 100 780.35 98.8 790.75 104.25 793.75 109.6 796.75 116.2 792.85 139.75 756.6 198.8 753.45 269.8 761.45 286.15 829.9
L 191.5 829.9
Q 177.1 836.6 177 849.5 180.75 867.4 191.5 867
L 286.1 867
Q 286.4 878.7 298.55 879.4
L 592.6 879.4
Q 641.15 870.3 671.95 834.3
L 776.8 687.25 815.4 861.25
Q 827.15 879.35 844.9 877.2 863.65 875.05 869.95 851.05
L 803.95 556.85
Q 799.9 551.8 793.15 551.4
L 701.8 141.55
M 810.4 737.45
Q 809.85 735.2 811.2 733.1 812.4 731.1 814.6 730.65
L 815.95 730.35
Q 818.15 729.85 820.15 731.05 822.2 732.35 822.75 734.55
L 836.2 794
Q 836.75 796.25 835.5 798.2 834.35 799.95 832.6 800.55 832.3 800.65 831.95 800.75
L 831.7 800.8
Q 831.5 800.85 831.35 800.9
L 830.65 801
Q 830.15 801.1 829.7 801.2 827.95 801.25 826.4 800.2 824.4 799.1 823.9 796.8
L 810.4 737.45
M 441.1 842.45
Q 442.8 844.15 442.8 846.45
L 442.8 848.75
Q 442.8 851.05 441.1 852.7 439.45 854.4 437.1 854.4
L 324.25 854.4
Q 321.95 854.4 320.25 852.7 318.6 851.05 318.6 848.75
L 318.6 846.45
Q 318.6 844.15 320.25 842.45 321.95 840.8 324.25 840.8
L 437.1 840.8
Q 439.45 840.8 441.1 842.45
M 192.25 798.95
Q 221.05 800.95 234.65 821.5
L 270.35 821.5
Q 248.3 768.75 192.9 767.1 113.3 776.25 110.8 852.75 117.2 922.35 188.35 931.8 248.5 933.25 270.7 877.7
L 234.95 877.7
Q 216.1 900.4 189.55 899.65 146.2 891.45 142.7 853.1 144.3 803.75 192.25 798.95
M 884.25 738.85
L 852.75 731.85 858.55 753.45 877.8 759.3
Q 892.95 754.55 884.25 738.85
M 786.75 771.6
L 781.5 747.65
Q 722.95 787.25 723.65 852.75 733.05 867.95 744.15 852.75 744.95 800.15 786.75 771.6
M 783 120.95
Q 783 109.2 774.7 100.9 766.45 92.65 754.7 92.65 743 92.65 734.65 100.9 726.4 109.2 726.4 120.95 726.4 132.65 734.65 140.9 743 149.25 754.7 149.25 766.45 149.25 774.7 140.9 783 132.65 783 120.95 Z"/>

<path fill="#FF8D00" stroke="none" d="
M 442.8 846.45
Q 442.8 844.15 441.1 842.45 439.45 840.8 437.1 840.8
L 324.25 840.8
Q 321.95 840.8 320.25 842.45 318.6 844.15 318.6 846.45
L 318.6 848.75
Q 318.6 851.05 320.25 852.7 321.95 854.4 324.25 854.4
L 437.1 854.4
Q 439.45 854.4 441.1 852.7 442.8 851.05 442.8 848.75
L 442.8 846.45
M 811.2 733.1
Q 809.85 735.2 810.4 737.45
L 823.9 796.8
Q 824.4 799.1 826.4 800.2 827.95 801.25 829.7 801.2 830.15 801.1 830.65 801
L 831.35 800.9
Q 831.5 800.85 831.7 800.8
L 831.95 800.75
Q 832.3 800.65 832.6 800.55 834.35 799.95 835.5 798.2 836.75 796.25 836.2 794
L 822.75 734.55
Q 822.2 732.35 820.15 731.05 818.15 729.85 815.95 730.35
L 814.6 730.65
Q 812.4 731.1 811.2 733.1 Z"/>
</g>

<path id="Layer0_0_1_STROKES" stroke="#666666" stroke-opacity="0.6274509803921569" stroke-width="1" stroke-linejoin="round" stroke-linecap="round" fill="none" d="
M 324.25 840.8
L 437.1 840.8
Q 439.45 840.8 441.1 842.45 442.8 844.15 442.8 846.45
L 442.8 848.75
Q 442.8 851.05 441.1 852.7 439.45 854.4 437.1 854.4
L 324.25 854.4
Q 321.95 854.4 320.25 852.7 318.6 851.05 318.6 848.75
L 318.6 846.45
Q 318.6 844.15 320.25 842.45 321.95 840.8 324.25 840.8 Z"/>
</defs>

<g transform="matrix( 1, 0, 0, 1, 0,0) ">
<use xlink:href="#Layer0_0_FILL"/>

<use xlink:href="#Layer0_0_1_STROKES"/>
</g>
</svg>
