
<svg xmlns="http://www.w3.org/2000/svg" version="1.1" xmlns:xlink="http://www.w3.org/1999/xlink" preserveAspectRatio="none" x="0px" y="0px" width="1024px" height="1024px" viewBox="0 0 1024 1024">
<defs>
<g id="Layer1_0_FILL">
<path fill="#FFFFFF" stroke="none" d="
M 1024 0
L 0 0 0 1024 1024 1024 1024 0 Z"/>
</g>

<g id="Layer0_0_MEMBER_0_MEMBER_0_MEMBER_0_FILL">
<path fill="#666666" stroke="none" d="
M 892.25 850.05
Q 888.05 883.45 859.65 896.8 820.95 907.6 796.25 871.45 786.05 849.8 798.95 823.45
L 789.25 784.75
Q 744.25 831.75 768.55 887.5 806.1 944.1 865 926.25 923.85 908.55 924.5 844.95 920.45 785.7 861.45 769.35
L 869.55 807.45
Q 893.15 825.35 892.25 850.05
M 192.25 799
Q 221.05 800.95 234.6 821.5
L 270.35 821.5
Q 248.3 768.85 192.85 767.1 113.3 776.35 110.8 852.75 117.2 922.35 188.35 931.8 248.5 933.3 270.7 877.75
L 234.9 877.75
Q 216.05 900.45 189.55 899.7 146.15 891.45 142.65 853.1 144.3 803.7 192.25 799
M 884.25 738.85
L 852.75 731.85 858.5 753.5 877.75 759.3
Q 892.85 754.6 884.25 738.85
M 786.75 771.6
L 781.5 747.7
Q 722.9 787.25 723.65 852.75 733.05 868 744.15 852.75 744.9 800.2 786.75 771.6
M 774.7 140.9
Q 783 132.6 783 120.95 783 109.25 774.7 100.95 766.45 92.7 754.7 92.7 743 92.7 734.65 100.95 726.4 109.2 726.4 120.95 726.4 132.65 734.65 140.9 742.95 149.25 754.7 149.25 766.5 149.25 774.7 140.9
M 721.5 139.15
Q 714.3 126.3 718.25 111.1
L 681.75 116.1
Q 663.35 123.15 664 141.45
L 757.75 558.45
Q 752.85 560.55 750.75 566.75
L 763.65 625.3 643.15 788.45
Q 624.15 812.95 591.75 816.75
L 318.75 816.75
Q 306.9 820.15 297.1 798.6 270.45 744.8 205.35 733.8 134.5 732.7 100 780.35 98.8 790.75 104.25 793.75 109.65 796.8 116.15 792.85 139.8 756.55 198.8 753.5 269.8 761.45 286.1 829.95
L 191.5 829.95
Q 177.1 836.65 177 849.5 180.75 867.45 191.5 867
L 286.1 867
Q 286.4 878.7 298.5 879.45
L 592.55 879.45
Q 641.1 870.3 671.95 834.3
L 776.75 687.25 815.4 861.25
Q 827.05 879.35 844.9 877.25 863.65 875.1 869.95 851.05
L 803.95 556.85
Q 799.9 551.85 793.15 551.45
L 701.75 141.6 721.5 139.15
M 820.15 731.05
Q 822.15 732.4 822.75 734.55
L 836.2 794
Q 836.7 796.2 835.5 798.25 834.3 799.95 832.55 800.55
L 831.95 800.75 831.7 800.8 831.3 800.95 830.65 801 829.7 801.25
Q 827.95 801.25 826.4 800.25 824.35 799.1 823.9 796.8
L 810.4 737.5
Q 809.8 735.2 811.2 733.1 812.4 731.15 814.55 730.7
L 815.95 730.35
Q 818.2 729.9 820.15 731.05
M 441.1 852.75
Q 439.4 854.45 437.1 854.45
L 324.25 854.45
Q 321.95 854.45 320.25 852.75 318.6 851.15 318.6 848.75
L 318.6 846.5
Q 318.6 844.1 320.25 842.5 321.95 840.8 324.25 840.8
L 437.1 840.8
Q 439.4 840.8 441.1 842.5 442.75 844.15 442.75 846.5
L 442.75 848.75
Q 442.75 851.1 441.1 852.75 Z"/>
</g>

<g id="Layer0_0_MEMBER_0_MEMBER_0_MEMBER_1_FILL">
<path fill="#FF8D00" stroke="none" d="
M 442.75 848.75
L 442.75 846.5
Q 442.75 844.15 441.1 842.5 439.4 840.8 437.1 840.8
L 324.25 840.8
Q 321.95 840.8 320.25 842.5 318.6 844.1 318.6 846.5
L 318.6 848.75
Q 318.6 851.15 320.25 852.75 321.95 854.45 324.25 854.45
L 437.1 854.45
Q 439.4 854.45 441.1 852.75 442.75 851.1 442.75 848.75
M 814.55 730.7
Q 812.4 731.15 811.2 733.1 809.8 735.2 810.4 737.5
L 823.9 796.8
Q 824.35 799.1 826.4 800.25 827.95 801.25 829.7 801.25
L 830.65 801 831.3 800.95 831.7 800.8 831.95 800.75 832.55 800.55
Q 834.3 799.95 835.5 798.25 836.7 796.2 836.2 794
L 822.75 734.55
Q 822.15 732.4 820.15 731.05 818.2 729.9 815.95 730.35
L 814.55 730.7 Z"/>
</g>

<path id="Layer0_0_MEMBER_1_MEMBER_0_1_STROKES" stroke="#666666" stroke-opacity="0.6274509803921569" stroke-width="1" stroke-linejoin="round" stroke-linecap="round" fill="none" d="
M 324.25 840.8
L 437.1 840.8
Q 439.4 840.8 441.1 842.5 442.75 844.15 442.75 846.5
L 442.75 848.75
Q 442.75 851.1 441.1 852.75 439.4 854.45 437.1 854.45
L 324.25 854.45
Q 321.95 854.45 320.25 852.75 318.6 851.15 318.6 848.75
L 318.6 846.5
Q 318.6 844.1 320.25 842.5 321.95 840.8 324.25 840.8 Z"/>
</defs>

<g transform="matrix( 1, 0, 0, 1, 0,0) ">
<use xlink:href="#Layer1_0_FILL"/>
</g>

<g transform="matrix( 1, 0, 0, 1, 0,0) ">
<use xlink:href="#Layer0_0_MEMBER_0_MEMBER_0_MEMBER_0_FILL"/>
</g>

<g transform="matrix( 1, 0, 0, 1, 0,0) ">
<use xlink:href="#Layer0_0_MEMBER_0_MEMBER_0_MEMBER_1_FILL"/>
</g>

<g transform="matrix( 1, 0, 0, 1, 0,0) ">
<use xlink:href="#Layer0_0_MEMBER_1_MEMBER_0_1_STROKES"/>
</g>
</svg>
